<svg xmlns="http://www.w3.org/2000/svg" viewBox="0 0 512 512" role="img" aria-label="Amnesia Pass Generator">
  <defs>
    <linearGradient id="bg" x1="0" y1="0" x2="1" y2="1">
      <stop offset="0" stop-color="#0f172a"/>
      <stop offset="1" stop-color="#111827"/>
    </linearGradient>
    <linearGradient id="accent" x1="0" y1="0" x2="1" y2="1">
      <stop offset="0" stop-color="#22d3ee"/>
      <stop offset="1" stop-color="#10b981"/>
    </linearGradient>
  </defs>
  <rect width="512" height="512" rx="96" fill="url(#bg)"/>
  <circle cx="256" cy="256" r="168" fill="url(#accent)" opacity="0.2"/>
  <circle cx="256" cy="256" r="120" fill="url(#accent)"/>
  <path d="M256 166c-48.6 0-88 39.4-88 88v54c0 14.4 11.6 26 26 26h124c14.4 0 26-11.6 26-26v-54c0-48.6-39.4-88-88-88zm-46 142v-54c0-25.4 20.6-46 46-46s46 20.6 46 46v54H210z" fill="#0b1120"/>
  <text x="256" y="330" font-family="Trebuchet MS, Arial, sans-serif" font-size="88" font-weight="700" text-anchor="middle" fill="#0b1120">APG</text>
</svg>
